<svg width="343" height="325" viewBox="0 0 343 325" fill="none" xmlns="http://www.w3.org/2000/svg">
<path d="M242.628 7.45651H74.2739C33.2536 7.45651 0 40.7101 0 81.7305V250.085C0 291.105 33.2536 324.359 74.2739 324.359H242.628C283.649 324.359 316.902 291.105 316.902 250.085V81.7305C316.902 40.7101 283.649 7.45651 242.628 7.45651Z" fill="#242938"/>
<path d="M283.51 225.868C286.583 229.856 284.59 235.669 279.72 234.389C279.204 234.254 278.693 234.093 278.189 233.907C274.478 232.537 271.413 229.895 269.574 226.48C258.016 209.686 245.253 193.649 232.987 177.268C230.298 173.789 225.044 173.795 222.352 177.271C209.534 193.819 196.836 209.918 185.124 226.55C183.388 229.813 180.488 232.353 176.966 233.695C176.684 233.803 176.399 233.902 176.111 233.993C171.27 235.529 169.165 229.698 172.259 225.669L217.252 167.078C219.332 164.368 219.306 160.592 217.187 157.912L176.292 106.178C173.116 102.161 175.157 96.2645 180.101 97.5984C180.462 97.6956 180.82 97.8047 181.174 97.9255C184.856 99.1794 187.979 101.628 190.017 104.858C200.071 119.12 211.047 132.835 222.118 147.058C225.116 150.911 230.952 150.929 233.963 147.086C245.047 132.943 255.95 119.202 266.241 105.065C267.987 101.854 270.888 99.3783 274.392 98.1092C274.699 97.998 275.008 97.8968 275.32 97.8056C280.137 96.3954 282.124 102.198 279.045 106.162L265.461 123.649C256.722 134.847 248.12 146.113 239.045 157.049C238.788 157.358 238.5 157.64 238.221 157.928C237.68 158.487 237.238 159.131 236.915 159.833C236.508 160.717 236.298 161.674 236.298 162.641C236.298 163.609 236.508 164.566 236.915 165.45C237.221 166.114 237.633 166.726 238.134 167.263C238.465 167.618 238.809 167.962 239.106 168.345C253.87 187.358 268.53 206.426 283.51 225.868ZM34.6612 162.373C34.6607 161.843 34.7181 161.314 34.8268 160.794C36.2212 154.127 37.1485 146.925 39.1279 140.169C51.3946 97.8392 101.383 80.2177 135.773 106.443C153.926 120.28 159.806 139.318 160.062 160.885C160.109 164.886 156.793 168.045 152.792 168.045H53.6518C49.6557 168.045 46.3279 171.21 46.5106 175.201C48.3158 214.644 79.5249 237.5 118.826 224.761C125.578 222.417 131.622 218.477 136.413 213.298C141.204 208.119 144.59 201.863 146.267 195.095C147.649 190.767 149.564 188.698 152.47 188.254C156.098 187.701 158.446 191.735 157.542 195.292C155.991 201.399 153.385 207.224 149.82 212.513C145.055 219.582 138.701 225.511 131.236 229.854C118.901 236.402 104.749 238.997 90.8035 237.266C76.858 235.536 63.8336 229.568 53.5931 220.218C43.4619 209.16 37.336 195.188 36.1502 180.434C36.1502 178.363 35.4275 176.291 34.9175 174.314C34.7871 173.809 34.729 173.288 34.7232 172.767C34.6851 169.302 34.6645 165.838 34.6612 162.373ZM46.5946 158.52C46.6251 158.578 46.6858 158.615 46.7519 158.615H141.638C145.815 158.615 149.221 155.168 148.695 151.024C145.187 123.354 125.724 104.361 100.462 104.172C69.8458 103.759 47.9421 125.762 46.5748 158.43C46.5735 158.461 46.5804 158.492 46.5946 158.52Z" fill="#00DC82"/>
<path fill-rule="evenodd" clip-rule="evenodd" d="M232.987 177.268C236.648 182.157 240.354 187.015 244.058 191.873C252.765 203.289 261.466 214.698 269.574 226.48C271.414 229.895 274.479 232.537 278.189 233.907C278.693 234.093 279.204 234.254 279.72 234.389C284.59 235.669 286.583 229.856 283.51 225.868C280.888 222.464 278.275 219.072 275.67 215.69C263.395 199.752 251.286 184.03 239.107 168.345C238.872 168.043 238.608 167.764 238.344 167.486C238.274 167.412 238.204 167.338 238.135 167.263C237.633 166.726 237.221 166.114 236.915 165.45C236.509 164.566 236.298 163.609 236.298 162.641C236.298 161.674 236.509 160.717 236.915 159.833C237.239 159.131 237.681 158.487 238.221 157.928C238.28 157.868 238.338 157.808 238.397 157.748C238.62 157.521 238.842 157.294 239.045 157.049C246.245 148.373 253.146 139.49 260.055 130.598C261.855 128.281 263.655 125.964 265.461 123.649L279.045 106.162C282.124 102.198 280.138 96.3954 275.32 97.8056C275.009 97.8968 274.699 97.998 274.392 98.1091C270.888 99.3783 267.987 101.854 266.242 105.065C257.274 117.384 247.842 129.402 238.231 141.647C236.812 143.455 235.389 145.267 233.964 147.086C230.952 150.929 225.117 150.911 222.118 147.058C220.089 144.451 218.063 141.861 216.046 139.282C207.055 127.789 198.229 116.506 190.017 104.858C187.98 101.628 184.857 99.1794 181.175 97.9255C180.82 97.8046 180.462 97.6956 180.102 97.5984C175.157 96.2645 173.117 102.161 176.293 106.178L217.188 157.912C219.306 160.592 219.333 164.368 217.252 167.078L172.259 225.669C169.166 229.698 171.271 235.529 176.112 233.993C176.399 233.902 176.684 233.803 176.967 233.695C180.489 232.353 183.388 229.813 185.124 226.55C195.187 212.26 205.978 198.364 216.947 184.238C218.744 181.923 220.547 179.601 222.352 177.271C225.044 173.795 230.299 173.789 232.987 177.268ZM230.023 179.53C233.721 184.467 237.444 189.349 241.155 194.214C249.797 205.547 258.371 216.789 266.394 228.436C268.684 232.577 272.421 235.752 276.898 237.405C277.515 237.633 278.141 237.829 278.773 237.995C280.752 238.515 282.758 238.38 284.516 237.468C286.247 236.57 287.41 235.089 288.051 233.499C289.307 230.386 288.743 226.551 286.463 223.592C283.844 220.192 281.234 216.803 278.631 213.424C266.353 197.483 254.238 181.752 242.051 166.059C241.689 165.592 241.254 165.135 240.994 164.86C240.941 164.805 240.896 164.758 240.86 164.719C240.627 164.47 240.44 164.19 240.302 163.891C240.119 163.493 240.027 163.068 240.027 162.641C240.027 162.215 240.119 161.789 240.302 161.392C240.448 161.076 240.649 160.781 240.9 160.521C240.931 160.49 240.968 160.452 241.012 160.407C241.232 160.183 241.6 159.809 241.914 159.43C249.156 150.703 256.105 141.759 263.017 132.862C264.813 130.551 266.605 128.243 268.4 125.943L281.989 108.45C284.275 105.507 284.852 101.675 283.602 98.574C282.962 96.9872 281.791 95.5019 280.035 94.6241C278.25 93.732 276.233 93.6536 274.273 94.2274C273.887 94.3405 273.503 94.466 273.123 94.6037C268.862 96.1469 265.293 99.1396 263.092 103.057C254.208 115.252 244.867 127.153 235.301 139.342C233.882 141.15 232.458 142.964 231.029 144.787C229.519 146.714 226.575 146.714 225.06 144.768C223.018 142.145 220.984 139.544 218.961 136.958C209.993 125.494 201.255 114.323 193.117 102.784C190.614 98.8605 186.818 95.9088 182.377 94.3963C181.946 94.2494 181.511 94.1169 181.073 93.9988C179.079 93.4609 177.055 93.5827 175.277 94.4918C173.525 95.3873 172.345 96.8773 171.695 98.4846C170.423 101.633 171.016 105.515 173.368 108.49L214.263 160.224C215.322 161.564 215.335 163.452 214.295 164.807L169.302 223.399C167.008 226.386 166.466 230.258 167.774 233.364C168.442 234.953 169.648 236.428 171.434 237.276C173.249 238.136 175.28 238.169 177.239 237.547C177.594 237.435 177.946 237.312 178.294 237.179C182.564 235.552 186.119 232.489 188.299 228.517C198.272 214.368 208.958 200.605 219.884 186.534C221.684 184.217 223.489 181.891 225.3 179.554C226.499 178.005 228.827 178.006 230.023 179.53ZM142.678 194.078L142.716 193.96C143.491 191.533 144.525 189.372 146.042 187.707C147.643 185.949 149.628 184.917 151.908 184.569C155.413 184.034 158.23 185.809 159.803 188.157C161.321 190.421 161.868 193.408 161.156 196.21C159.499 202.735 156.715 208.954 152.912 214.596C147.828 222.139 141.056 228.455 133.111 233.076L133.048 233.113L132.984 233.147C119.969 240.057 105.045 242.791 90.3448 240.966C75.6438 239.142 61.8986 232.85 51.0796 222.971L50.9569 222.859L50.8446 222.736C40.161 211.076 33.6875 196.325 32.4344 180.733L32.4224 180.584V180.434C32.4224 179.337 32.1404 178.311 31.7321 176.825C31.6019 176.351 31.4589 175.831 31.308 175.246C31.0901 174.402 31.0041 173.576 30.9956 172.808C30.9574 169.331 30.9367 165.854 30.9334 162.377C30.9326 161.575 31.0195 160.789 31.1779 160.031C31.5984 158.021 31.991 155.857 32.3976 153.615C33.255 148.888 34.1747 143.818 35.549 139.126C48.5027 94.4384 101.436 75.5689 138.034 103.478C157.408 118.246 163.526 138.579 163.79 160.841C163.864 167.048 158.737 171.774 152.793 171.774H53.6522C51.563 171.774 50.1596 173.376 50.2354 175.031C51.0941 193.793 58.9023 208.21 70.7448 216.494C82.5665 224.763 98.9258 227.282 117.639 221.227C123.806 219.079 129.315 215.481 133.676 210.766C138.045 206.043 141.125 200.348 142.649 194.198L142.678 194.078ZM39.1284 140.169C37.8069 144.679 36.9544 149.388 36.1187 154.005C35.7026 156.303 35.2907 158.578 34.8272 160.794C34.7186 161.314 34.6611 161.843 34.6616 162.373C34.6649 165.838 34.6856 169.302 34.7237 172.767C34.7294 173.288 34.7876 173.809 34.918 174.314C35.0224 174.719 35.1358 175.128 35.2501 175.54C35.6937 177.139 36.1507 178.787 36.1507 180.434C37.3364 195.188 43.4623 209.16 53.5936 220.218C63.834 229.568 76.8585 235.536 90.8039 237.266C104.749 238.997 118.901 236.402 131.236 229.854C138.701 225.511 145.055 219.582 149.82 212.513C153.385 207.224 155.991 201.399 157.543 195.292C158.446 191.735 156.099 187.701 152.471 188.254C149.565 188.698 147.65 190.767 146.267 195.095C144.591 201.863 141.204 208.119 136.413 213.298C131.623 218.477 125.578 222.417 118.827 224.761C79.5253 237.499 48.3163 214.644 46.511 175.201C46.3283 171.21 49.6561 168.045 53.6522 168.045H152.793C156.793 168.045 160.11 164.886 160.062 160.885C159.807 139.318 153.926 120.28 135.773 106.443C101.384 80.2177 51.395 97.8392 39.1284 140.169ZM100.435 107.9L100.413 107.9C86.0487 107.706 73.9117 112.753 65.195 121.524C57.1657 129.603 51.8594 141.027 50.5512 154.887H141.638C143.848 154.887 145.206 153.143 144.997 151.493C141.685 125.37 123.537 108.073 100.435 107.9ZM46.8073 154.887C46.8073 154.887 46.8073 154.887 46.8073 154.887C49.5574 124.182 70.9667 103.774 100.463 104.172C125.725 104.361 145.187 123.354 148.696 151.024C149.221 155.168 145.815 158.615 141.638 158.615H46.7524C46.6862 158.615 46.6256 158.578 46.5951 158.52C46.5808 158.492 46.574 158.461 46.5753 158.43C46.6161 157.455 46.6752 156.489 46.7524 155.533C46.7698 155.317 46.7881 155.101 46.8073 154.887Z" fill="#00DC82"/>
<g clip-path="url(#clip0_5_62)">
<path d="M323.776 0H280.202C269.585 0 260.978 8.60681 260.978 19.2238V62.7979C260.978 73.4149 269.585 82.0217 280.202 82.0217H323.776C334.393 82.0217 343 73.4149 343 62.7979V19.2238C343 8.60681 334.393 0 323.776 0Z" fill="#00DC82"/>
<path d="M314.109 53.6041V34.0307H318.001V36.4218H318.177C318.35 36.0387 318.601 35.6494 318.928 35.254C319.262 34.8524 319.694 34.5188 320.225 34.2531C320.763 33.9813 321.43 33.8453 322.227 33.8453C323.265 33.8453 324.223 34.1172 325.1 34.6609C325.978 35.1984 326.679 36.0109 327.204 37.0983C327.729 38.1795 327.992 39.5357 327.992 41.1668C327.992 42.7547 327.735 44.0954 327.223 45.189C326.716 46.2764 326.024 47.1012 325.147 47.6635C324.275 48.2195 323.299 48.4976 322.218 48.4976C321.452 48.4976 320.8 48.3709 320.263 48.1176C319.731 47.8643 319.296 47.5461 318.956 47.163C318.616 46.7738 318.356 46.3814 318.177 45.986H318.057V53.6041H314.109ZM317.973 41.1483C317.973 41.9947 318.091 42.7331 318.326 43.3633C318.56 43.9935 318.9 44.4846 319.345 44.8368C319.79 45.1828 320.331 45.3558 320.967 45.3558C321.609 45.3558 322.153 45.1797 322.598 44.8276C323.043 44.4692 323.38 43.9749 323.608 43.3447C323.843 42.7083 323.96 41.9762 323.96 41.1483C323.96 40.3265 323.846 39.6037 323.617 38.9796C323.389 38.3556 323.052 37.8675 322.607 37.5153C322.162 37.1632 321.616 36.9871 320.967 36.9871C320.324 36.9871 319.781 37.157 319.336 37.4968C318.897 37.8366 318.56 38.3185 318.326 38.9426C318.091 39.5666 317.973 40.3018 317.973 41.1483Z" fill="#242938"/>
<path d="M297.594 53.6041V34.0307H301.486V36.4218H301.662C301.835 36.0387 302.086 35.6494 302.413 35.254C302.747 34.8524 303.179 34.5188 303.71 34.2531C304.248 33.9813 304.915 33.8453 305.712 33.8453C306.75 33.8453 307.708 34.1172 308.585 34.6609C309.463 35.1984 310.164 36.0109 310.689 37.0983C311.214 38.1795 311.477 39.5357 311.477 41.1668C311.477 42.7547 311.22 44.0954 310.708 45.189C310.201 46.2764 309.509 47.1012 308.632 47.6635C307.76 48.2195 306.784 48.4976 305.703 48.4976C304.937 48.4976 304.285 48.3709 303.748 48.1176C303.216 47.8643 302.781 47.5461 302.441 47.163C302.101 46.7738 301.841 46.3814 301.662 45.986H301.542V53.6041H297.594ZM301.458 41.1483C301.458 41.9947 301.576 42.7331 301.811 43.3633C302.045 43.9935 302.385 44.4846 302.83 44.8368C303.275 45.1828 303.815 45.3558 304.452 45.3558C305.094 45.3558 305.638 45.1797 306.083 44.8276C306.528 44.4692 306.865 43.9749 307.093 43.3447C307.328 42.7083 307.445 41.9762 307.445 41.1483C307.445 40.3265 307.331 39.6037 307.102 38.9796C306.874 38.3556 306.537 37.8675 306.092 37.5153C305.647 37.1632 305.101 36.9871 304.452 36.9871C303.809 36.9871 303.266 37.157 302.821 37.4968C302.382 37.8366 302.045 38.3185 301.811 38.9426C301.576 39.5666 301.458 40.3018 301.458 41.1483Z" fill="#242938"/>
<path d="M281.417 48.2659H277.117L283.669 29.2856H288.84L295.383 48.2659H291.083L286.329 33.6229H286.181L281.417 48.2659ZM281.148 40.8054H291.306V43.9379H281.148V40.8054Z" fill="#242938"/>
</g>
<defs>
<clipPath id="clip0_5_62">
<rect x="260.978" width="82.0217" height="82.0217" rx="5" fill="white"/>
</clipPath>
</defs>
</svg>
